<?xml version="1.0" standalone="no"?>
<!DOCTYPE svg PUBLIC "-//W3C//DTD SVG 20010904//EN"
 "http://www.w3.org/TR/2001/REC-SVG-20010904/DTD/svg10.dtd">
<svg version="1.0" xmlns="http://www.w3.org/2000/svg"
 width="500.000000pt" height="500.000000pt" viewBox="0 0 500.000000 500.000000"
 preserveAspectRatio="xMidYMid meet">
<metadata>
Created by potrace 1.14, written by Peter Selinger 2001-2017
</metadata>
<g transform="translate(0.000000,500.000000) scale(0.100000,-0.100000)"
fill="#000000" stroke="none">
<path d="M1670 3699 c-85 -17 -170 -67 -252 -151 l-77 -79 20 -52 c108 -276
386 -765 710 -1248 l57 -85 4 -310 c5 -335 12 -378 66 -457 71 -106 256 -150
505 -121 73 8 155 21 182 28 l50 12 5 415 5 414 81 130 c249 401 486 817 539
947 43 106 59 201 46 274 -27 144 -107 229 -260 275 -61 18 -89 21 -165 16
-102 -6 -224 -36 -296 -72 l-47 -24 -143 -358 c-78 -197 -148 -368 -154 -381
-11 -22 -25 1 -169 285 -86 169 -165 321 -176 337 -36 54 -120 132 -171 160
-89 49 -243 68 -360 45z m247 -154 c67 -20 137 -84 188 -170 22 -38 115 -222
206 -409 l167 -341 60 -3 60 -3 64 148 c36 81 118 281 183 445 l117 296 62 24
c52 19 80 23 181 23 105 0 125 -3 162 -22 98 -53 128 -158 83 -293 -36 -110
-243 -478 -531 -947 l-119 -193 0 -374 0 -374 -45 -6 c-25 -4 -100 -7 -167 -7
-131 0 -215 16 -250 48 -48 42 -51 68 -56 413 l-4 325 -128 195 c-262 400
-435 696 -566 965 l-73 150 22 23 c30 32 95 77 132 90 45 16 194 14 252 -3z"/>
</g>
</svg>
